# xmcd
#
# Track frame offsets:
#	150
#	17083
#	38215
#	54385
#	71631
#	88173
#	104876
#	126692
#	141165
#	162515
#	175815
#	188212
#	203056
#	219751
#	234704
#	248299
#	264936
#	281687
#	298064
#	313693
#
# Disc length: 4470 seconds
#
# Revision: 1
# Processed by: cddbd v1.5.2PL0 Copyright (c) Steve Scherf et al.
# Submitted via: EasyCDDAExtractor 16.1.0.1
#
DISCID=32117414
DTITLE=Kari Tapio - Olen Suomalainen: Kaikki levytykset 1972-1992 [CD7 - 1986-
DTITLE=1988)
DYEAR=2011
DGENRE=Country
TTITLE0=Kari Tapio - Minkä luoja loi
TTITLE1=Kari Tapio - Voimaa sulta saan
TTITLE2=Kari Tapio and Lea Laven - Muistojen hehku
TTITLE3=Kari Tapio - Sylissä rakkaimpain
TTITLE4=Kari Tapio - Hän
TTITLE5=Kari Tapio - Kaukana rakkaani on
TTITLE6=Kari Tapio - Muistoissain
TTITLE7=Kari Tapio - Anna
TTITLE8=Kari Tapio - Valkokyyhkynen
TTITLE9=Kari Tapio - Elämän viulut
TTITLE10=Kari Tapio - Missä nyt oot
TTITLE11=Kari Tapio - Kun kahden kuljetaan
TTITLE12=Kari Tapio - Kaikki tää ja taivas myös
TTITLE13=Kari Tapio - Suloisen heikentävä yö
TTITLE14=Kari Tapio - Tää kaipuu
TTITLE15=Kari Tapio - Soittajan vaimo
TTITLE16=Kari Tapio - Tuntematon maa
TTITLE17=Kari Tapio - Taakse töhtien
TTITLE18=Kari Tapio - Kultasuoni
TTITLE19=Kari Tapio - Yksinäisyyden ensimmäinen aamu
EXTD=
EXTT0=
EXTT1=
EXTT2=
EXTT3=
EXTT4=
EXTT5=
EXTT6=
EXTT7=
EXTT8=
EXTT9=
EXTT10=
EXTT11=
EXTT12=
EXTT13=
EXTT14=
EXTT15=
EXTT16=
EXTT17=
EXTT18=
EXTT19=
PLAYORDER=
